<svg xmlns="http://www.w3.org/2000/svg" xml:space="preserve" style="enable-background:new 0 0 348 101" viewBox="0 0 348 101">
  <defs>
    <linearGradient id="a" x1="0%" x2="100%" y1="0%" y2="0%">
      <stop offset="0%" style="stop-color:#00b5cc;stop-opacity:1"/>
      <stop offset="50%" style="stop-color:#52c7a3;stop-opacity:1"/>
      <stop offset="100%" style="stop-color:#f4a261;stop-opacity:1"/>
    </linearGradient>
  </defs>
  <path d="M0 67.9V0h8.5v59.3h20.3v8.6zM44.3 68.8c-8 0-13.9-5.5-13.9-14.2V20.8c0-8.7 5.9-14.2 13.9-14.2s13.9 5.5 13.9 14.2v33.8c0 8.7-5.9 14.2-13.9 14.2zm5.4-14.2V20.8c0-4.1-2.3-6.1-5.4-6.1s-5.4 2-5.4 6.1v33.8c0 4.1 2.3 6.1 5.4 6.1s5.4-2 5.4-6.1zM82 68.8c-7.5 0-13.5-5.4-13.5-14.2V20.8c0-8.7 6-14.2 13.5-14.2 7.8 0 13.4 5.5 13.4 14.2v13.4h-8.5V20.8c0-4.1-2.1-6.1-4.9-6.1s-5 2-5 6.1v33.8c0 4.1 2.2 6.1 5 6.1s4.9-2 4.9-6.1V46.8H82v-7.6h13.4v15.4c0 8.7-5.6 14.2-13.4 14.2zM119.1 68.8c-7.5 0-13.5-5.4-13.5-14.2V20.8c0-8.7 6-14.2 13.5-14.2 7.8 0 13.4 5.5 13.4 14.2v33.8c0 8.8-5.6 14.2-13.4 14.2zm4.9-14.2V20.8c0-4.1-2.1-6.1-4.9-6.1s-5 2-5 6.1v33.8c0 4.1 2.2 6.1 5 6.1s4.9-2 4.9-6.1zM171.4 67.9V15.5h-14.8v-8h38.2v8h-14.8v52.4zM207.5 68.8c-7.5 0-13.5-5.4-13.5-14.2V20.8c0-8.7 6-14.2 13.5-14.2 7.8 0 13.4 5.5 13.4 14.2v33.8c0 8.8-5.6 14.2-13.4 14.2zm4.9-14.2V20.8c0-4.1-2.1-6.1-4.9-6.1s-5 2-5 6.1v33.8c0 4.1 2.2 6.1 5 6.1s4.9-2 4.9-6.1zM256.4 68.8c-8 0-13.9-5.5-13.9-14.2V20.8c0-8.7 5.9-14.2 13.9-14.2s13.9 5.5 13.9 14.2v33.8c0 8.7-5.9 14.2-13.9 14.2zm5.4-14.2V20.8c0-4.1-2.3-6.1-5.4-6.1s-5.4 2-5.4 6.1v33.8c0 4.1 2.3 6.1 5.4 6.1s5.4-2 5.4-6.1zM295.7 68.8c-7.5 0-13.5-5.4-13.5-14.2V20.8c0-8.7 6-14.2 13.5-14.2 7.8 0 13.4 5.5 13.4 14.2v13.4h-8.5V20.8c0-4.1-2.1-6.1-4.9-6.1s-5 2-5 6.1v33.8c0 4.1 2.2 6.1 5 6.1s4.9-2 4.9-6.1V46.8h-4.9v-7.6h13.4v15.4c0 8.7-5.6 14.2-13.4 14.2zM323.8 67.9V7.5h22.1v8h-13.6v17.8h12.3v8h-12.3v18h13.6v8.6zM8.2 100.5V84.8h1.4v14.2h3.4v1.5zM22.2 100.5L18.4 91l-3.8 9.5h-1.6l4.5-10.9c.3-.7.6-1.3.6-2.1 0-.8-.3-1.4-.6-2.1l-4.5-10.9h1.6L18.4 85l3.8-9.5h1.6l-4.5 10.9c-.3.7-.6 1.3-.6 2.1 0 .8.3 1.4.6 2.1l4.5 10.9zM25.2 100.5V84.8h1.4v14.2h3.4v1.5zM38.6 100.7c-1.1 0-1.9-.8-1.9-2V87.5c0-1.2.8-2 1.9-2s1.9.8 1.9 2v11.2c0 1.2-.8 2-1.9 2zm.5-2V87.5c0-.4-.2-.6-.5-.6s-.5.2-.5.6v11.2c0 .4.2.6.5.6s.5-.2.5-.6zM50.5 100.5l-2.1-5.6c-.1-.3-.2-.4-.4-.4h-.7v6h-1.4V84.8h2.8c1.6 0 2.5.9 2.5 2.4v2.8c0 1-.4 1.7-1 2l2.2 5.8v2.7zm-3.2-7.4h1.3c.6 0 1.1-.4 1.1-1.1v-2.8c0-.7-.5-1.1-1.1-1.1h-1.3v5zM60.3 100.7c-1.1 0-1.9-.8-1.9-2V87.5c0-1.2.8-2 1.9-2 1.2 0 2 .8 2 2v4.8h-1.4v-4.8c0-.4-.3-.6-.6-.6s-.6.2-.6.6v11.2c0 .4.3.6.6.6s.6-.2.6-.6V94h-.6v-1.3h2v5.5c0 1.2-.8 2-2 2zM72.7 100.5V84.8h3.7v1.4h-2.3v4.7h2.1v1.3h-2.1v4.8h2.3v1.5zM84.9 100.5l-2.1-5.6c-.1-.3-.2-.4-.4-.4h-.7v6h-1.4V84.8H83c1.6 0 2.5.9 2.5 2.4v2.8c0 1-.4 1.7-1 2l2.2 5.8v2.7zm-3.2-7.4h1.3c.6 0 1.1-.4 1.1-1.1v-2.8c0-.7-.5-1.1-1.1-1.1h-1.3v5zM101.5 100.5V84.8h3.7v1.4h-2.3v4.7h2.1v1.3h-2.1v4.8h2.3v1.5zM114 100.7c-1.1 0-1.9-.8-1.9-2V87.5c0-1.2.8-2 1.9-2 1.2 0 2 .8 2 2v11.2c0 1.2-.8 2-2 2zm.5-2V87.5c0-.4-.3-.6-.5-.6s-.6.2-.6.6v11.2c0 .4.3.6.6.6s.5-.2.5-.6zM125.8 100.7c-1.1 0-1.9-.8-1.9-2V87.5c0-1.2.8-2 1.9-2 1.2 0 2 .8 2 2v4.8h-1.4v-4.8c0-.4-.3-.6-.6-.6s-.6.2-.6.6v11.2c0 .4.3.6.6.6s.6-.2.6-.6V94h-.6v-1.3h2v5.5c0 1.2-.8 2-2 2zM142.1 100.5V84.8h1.4v14.2h3.4v1.5zM148.8 100.5V84.8h1.4v15.7zM160.8 100.7c-1.1 0-1.9-.8-1.9-2V87.5c0-1.2.8-2 1.9-2 1.2 0 2 .8 2 2v11.2c0 1.2-.8 2-2 2zm.5-2V87.5c0-.4-.3-.6-.5-.6s-.6.2-.6.6v11.2c0 .4.3.6.6.6s.5-.2.5-.6zM171.8 100.5V84.8h1.4v15.7zM176.3 100.5V84.8h1.4v14.2h3.4v1.5zM189.7 100.5V84.8h1.4v14.2h3.4v1.5zM203.8 100.7c-1.1 0-1.9-.8-1.9-2V87.5c0-1.2.8-2 1.9-2 1.2 0 2 .8 2 2v11.2c0 1.2-.8 2-2 2zm.5-2V87.5c0-.4-.3-.6-.5-.6s-.6.2-.6.6v11.2c0 .4.3.6.6.6s.5-.2.5-.6zM214.7 100.7c-1.1 0-1.9-.8-1.9-2V87.5c0-1.2.8-2 1.9-2 1.2 0 2 .8 2 2v4.8h-1.4v-4.8c0-.4-.3-.6-.6-.6s-.6.2-.6.6v11.2c0 .4.3.6.6.6s.6-.2.6-.6V94h-.6v-1.3h2v5.5c0 1.2-.8 2-2 2zM224.4 100.5V92c0-.4-.3-.6-.6-.6s-.6.2-.6.6v8.5h-1.4V87.5c0-1.2.8-2 1.9-2 1.2 0 2 .8 2 2v13zM234.3 100.5v-6.7l-1.1 5.5c-.1.4-.2.6-.5.6s-.4-.2-.5-.6l-1.1-5.5v6.7h-1.4V84.8h1.9l1.1 6.6 1.1-6.6h1.9v15.7zM244.4 100.5v-6.7l-1.1 5.5c-.1.4-.2.6-.5.6s-.4-.2-.5-.6l-1.1-5.5v6.7h-1.4V84.8h1.9l1.1 6.6 1.1-6.6h1.9v15.7zM254.5 100.5v-6.7l-1.1 5.5c-.1.4-.2.6-.5.6s-.4-.2-.5-.6l-1.1-5.5v6.7h-1.4V84.8h1.9l1.1 6.6 1.1-6.6h1.9v15.7zM264.5 100.5v-6.7l-1.1 5.5c-.1.4-.2.6-.5.6s-.4-.2-.5-.6l-1.1-5.5v6.7H260V84.8h1.9l1.1 6.6 1.1-6.6h1.9v15.7zM267.5 100.5V84.8h3.7v1.4h-2.3v4.7h2.1v1.3h-2.1v4.8h2.3v1.5zM280 100.7c-1.1 0-1.9-.8-1.9-2V87.5c0-1.2.8-2 1.9-2 1.2 0 2 .8 2 2v4.8h-1.4v-4.8c0-.4-.3-.6-.6-.6s-.6.2-.6.6v11.2c0 .4.3.6.6.6s.6-.2.6-.6V94h-.6v-1.3h2v5.5c0 1.2-.8 2-2 2zM291 100.5V92c0-.4-.3-.6-.6-.6s-.6.2-.6.6v8.5h-1.4V87.5c0-1.2.8-2 1.9-2 1.2 0 2 .8 2 2v13zM300.9 100.5l-2.1-5.6c-.1-.3-.2-.4-.4-.4h-.7v6h-1.4V84.8h2.8c1.6 0 2.5.9 2.5 2.4v2.8c0 1-.4 1.7-1 2l2.2 5.8v2.7zm-3.2-7.4h1.3c.6 0 1.1-.4 1.1-1.1v-2.8c0-.7-.5-1.1-1.1-1.1h-1.3v5zM310.7 100.7c-1.1 0-1.9-.8-1.9-2V87.5c0-1.2.8-2 1.9-2 1.2 0 2 .8 2 2v4.8h-1.4v-4.8c0-.4-.3-.6-.6-.6s-.6.2-.6.6v11.2c0 .4.3.6.6.6s.6-.2.6-.6V94h-.6v-1.3h2v5.5c0 1.2-.8 2-2 2zM321.6 100.5V92c0-.4-.3-.6-.6-.6s-.6.2-.6.6v8.5h-1.4V87.5c0-1.2.8-2 1.9-2 1.2 0 2 .8 2 2v13zM331.5 100.5v-6.7l-1.1 5.5c-.1.4-.2.6-.5.6s-.4-.2-.5-.6l-1.1-5.5v6.7h-1.4V84.8h1.9l1.1 6.6 1.1-6.6h1.9v15.7zM341.6 100.5v-6.7l-1.1 5.5c-.1.4-.2.6-.5.6s-.4-.2-.5-.6l-1.1-5.5v6.7h-1.4V84.8h1.9l1.1 6.6 1.1-6.6h1.9v15.7z" style="fill:url(#a)"/>
</svg>