<svg xmlns="http://www.w3.org/2000/svg" viewBox="0 0 358.37 82.86">
  <defs>
    <style>
      .cls-1{fill:#1a2e4b;}
    </style>
  </defs>
  <g id="Layer_2" data-name="Layer 2">
    <g id="Layer_1-2" data-name="Layer 1">
      <path class="cls-1" d="M7.41,29.72H24.24c9.38,0,16,5.57,16,15.75,0,10.33-6.59,15.75-16,15.75H15.33v13H7.41ZM15.33,53.31H23.4c4.49,0,8.27-2.16,8.27-7.84s-3.78-7.84-8.27-7.84H15.33Z"/>
      <path class="cls-1" d="M61,74.81c-14.2,0-22.32-10.18-22.32-22.61S46.8,29.59,61,29.59s22.32,10.18,22.32,22.61S75.2,74.81,61,74.81Zm0-37.31c-9.23,0-14.4,6.88-14.4,14.7s5.17,14.7,14.4,14.7,14.4-6.88,14.4-14.7S70.23,37.5,61,37.5Z"/>
      <path class="cls-1" d="M109.35,74.81c-14.2,0-22.32-10.18-22.32-22.61S95.15,29.59,109.35,29.59s22.32,10.18,22.32,22.61S123.55,74.81,109.35,74.81Zm0-37.31c-9.23,0-14.4,6.88-14.4,14.7s5.17,14.7,14.4,14.7,14.4-6.88,14.4-14.7S118.58,37.5,109.35,37.5Z"/>
      <path class="cls-1" d="M135.48,30.27h7.92v36.88h23.61v6.07H135.48Z"/>
      <path class="cls-1" d="M210.43,54.87c0,12-7.84,19.94-20.64,19.94s-20.64-7.92-20.64-19.94V44.88c0-12,7.84-19.94,20.64-19.94s20.64,7.92,20.64,19.94Zm-7.92-10c0-8.11-4.41-13-12.72-13s-12.72,4.86-12.72,13V54.87c0,8.11,4.41,13,12.72,13s12.72-4.86,12.72-13Z"/>
      <path class="cls-1" d="M246.73,44c0-10.18,6.59-15.75,16-15.75H280.3v7.92H262.7c-4.49,0-8.27,2.16-8.27,7.84V46.6c0,5.68,3.78,7.84,8.27,7.84H280.3v7.92H262.7c-9.38,0-16-5.57-16-15.75Z"/>
      <path class="cls-1" d="M283.05,30.27H325v6.07H290.97v13H323v6.07H290.97v15.67H325v6.07H283.05Z"/>
      <path class="cls-1" d="M7.41,29.72H24.24c9.38,0,16,5.57,16,15.75,0,10.33-6.59,15.75-16,15.75H15.33v13H7.41ZM15.33,53.31H23.4c4.49,0,8.27-2.16,8.27-7.84s-3.78-7.84-8.27-7.84H15.33Z"/>
      <path class="cls-1" d="M61,74.81c-14.2,0-22.32-10.18-22.32-22.61S46.8,29.59,61,29.59s22.32,10.18,22.32,22.61S75.2,74.81,61,74.81Zm0-37.31c-9.23,0-14.4,6.88-14.4,14.7s5.17,14.7,14.4,14.7,14.4-6.88,14.4-14.7S70.23,37.5,61,37.5Z"/>
      <path class="cls-1" d="M109.35,74.81c-14.2,0-22.32-10.18-22.32-22.61S95.15,29.59,109.35,29.59s22.32,10.18,22.32,22.61S123.55,74.81,109.35,74.81Zm0-37.31c-9.23,0-14.4,6.88-14.4,14.7s5.17,14.7,14.4,14.7,14.4-6.88,14.4-14.7S118.58,37.5,109.35,37.5Z"/>
      <path class="cls-1" d="M135.48,30.27h7.92v36.88h23.61v6.07H135.48Z"/>
      <path class="cls-1" d="M210.43,54.87c0,12-7.84,19.94-20.64,19.94s-20.64-7.92-20.64-19.94V44.88c0-12,7.84-19.94,20.64-19.94s20.64,7.92,20.64,19.94Zm-7.92-10c0-8.11-4.41-13-12.72-13s-12.72,4.86-12.72,13V54.87c0,8.11,4.41,13,12.72,13s12.72-4.86,12.72-13Z"/>
      <path class="cls-1" d="M246.73,44c0-10.18,6.59-15.75,16-15.75H280.3v7.92H262.7c-4.49,0-8.27,2.16-8.27,7.84V46.6c0,5.68,3.78,7.84,8.27,7.84H280.3v7.92H262.7c-9.38,0-16-5.57-16-15.75Z"/>
      <path class="cls-1" d="M283.05,30.27H325v6.07H290.97v13H323v6.07H290.97v15.67H325v6.07H283.05Z"/>
      <g>
        <path class="cls-1" d="M7.41,0H7.41V0h0Z"/>
        <path class="cls-1" d="M46.44,0H46.44V0h0Z"/>
        <path class="cls-1" d="M85.46,0H85.46V0h0Z"/>
        <path class="cls-1" d="M124.49,0H124.49V0h0Z"/>
        <path class="cls-1" d="M163.51,0H163.51V0h0Z"/>
        <path class="cls-1" d="M202.54,0H202.54V0h0Z"/>
        <path class="cls-1" d="M241.56,0H241.56V0h0Z"/>
        <path class="cls-1" d="M280.59,0H280.59V0h0Z"/>
        <path class="cls-1" d="M319.61,0H319.61V0h0Z"/>
        <path class="cls-1" d="M358.37,0H358.37V0h0Z"/>
      </g>
      <g>
        <path class="cls-1" d="M7.41,82.86H7.41v0h0Z"/>
        <path class="cls-1" d="M46.44,82.86H46.44v0h0Z"/>
        <path class="cls-1" d="M85.46,82.86H85.46v0h0Z"/>
        <path class="cls-1" d="M124.49,82.86H124.49v0h0Z"/>
        <path class="cls-1" d="M163.51,82.86H163.51v0h0Z"/>
        <path class="cls-1" d="M202.54,82.86H202.54v0h0Z"/>
        <path class="cls-1" d="M241.56,82.86H241.56v0h0Z"/>
        <path class="cls-1" d="M280.59,82.86H280.59v0h0Z"/>
        <path class="cls-1" d="M319.61,82.86H319.61v0h0Z"/>
        <path class="cls-1" d="M358.37,82.86H358.37v0h0Z"/>
      </g>
      <g>
        <path class="cls-1" d="M336,7.92c4,0,7.2,3.24,7.2,7.2v52.62c0,4-3.24,7.2-7.2,7.2H22.41c-4,0-7.2-3.24-7.2-7.2V15.12c0-4,3.24-7.2,7.2-7.2H336m0-7.92H22.41C10.06,0,0,10.06,0,22.41V60.45C0,72.8,10.06,82.86,22.41,82.86H336c12.35,0,22.41-10.06,22.41-22.41V22.41C358.37,10.06,348.31,0,336,0Z"/>
      </g>
    </g>
  </g>
</svg>